<svg width="371" height="106" viewBox="0 0 371 106" fill="none" xmlns="http://www.w3.org/2000/svg">
<g id="logo_text">
<g id="TODOAPP">
<path id="T1" d="M24.3594 62.9844L24.5938 60.1719H56.0469L55.8125 62.9844H24.3594ZM33.2656 87.3125L35.6094 60.1719H45.3594L43.0156 87.3125H33.2656Z" fill="black"/>
<path id="O2" d="M68.25 87.3125L70.5938 60.1719H80.3438L78 87.3125H68.25ZM70.9219 62.9844L71.1562 60.1719H102.141L101.906 62.9844H70.9219ZM69.0469 87.3125L69.2812 84.5H100.078L99.8438 87.3125H69.0469ZM90.1875 87.3125L92.5312 60.1719H102.281L99.9375 87.3125H90.1875Z" fill="black"/>
<path id="D1" d="M133.812 87.3125L136.906 77.9375L137.656 69.5469L136.25 60.1719H146L147.406 69.5469L146.656 77.9375L143.562 87.3125H133.812ZM113.797 87.3125L116.188 60.1719H125.938L123.547 87.3125H113.797ZM115.953 62.9844L116.188 60.1719H144.312L144.078 62.9844H115.953ZM113.797 87.3125L114.031 84.5H136.203L135.969 87.3125H113.797Z" fill="black"/>
<path id="O3" d="M158.75 87.3125L161.094 60.1719H170.844L168.5 87.3125H158.75ZM161.422 62.9844L161.656 60.1719H192.641L192.406 62.9844H161.422ZM159.547 87.3125L159.781 84.5H190.578L190.344 87.3125H159.547ZM180.688 87.3125L183.031 60.1719H192.781L190.438 87.3125H180.688Z" fill="black"/>
<path id="A2" d="M225.172 74.1875L225.406 71.375H255.641L255.406 74.1875H225.172ZM223.25 87.3125L225.594 60.1719H235.344L233 87.3125H223.25ZM245.188 87.3125L247.531 60.1719H257.281L254.938 87.3125H245.188ZM225.922 62.9844L226.156 60.1719H256.391L256.156 62.9844H225.922Z" fill="black"/>
<path id="P1" d="M270.672 74.1875L270.906 71.375H301.141L300.906 74.1875H270.672ZM268.75 87.3125L271.094 60.1719H280.844L278.5 87.3125H268.75ZM271.609 62.9844L271.844 60.1719H302.078L301.844 62.9844H271.609ZM291.812 74.1875L293.031 60.1719H302.781L301.562 74.1875H291.812Z" fill="black"/>
<path id="P2" d="M316.172 74.1875L316.406 71.375H346.641L346.406 74.1875H316.172ZM314.25 87.3125L316.594 60.1719H326.344L324 87.3125H314.25ZM317.109 62.9844L317.344 60.1719H347.578L347.344 62.9844H317.109ZM337.312 74.1875L338.531 60.1719H348.281L347.062 74.1875H337.312Z" fill="black"/>
</g>
<g id="SAIKYO">
<path id="S1" d="M70.4751 29.1875L70.7095 26.375H100.944L100.709 29.1875H70.4751ZM71.4126 18.0312L71.647 15.2188H101.881L101.647 18.0312H71.4126ZM69.8188 29.1875L71.0376 15.2188H80.7876L79.5688 29.1875H69.8188ZM90.4907 42.3125L91.897 26.375H101.647L100.241 42.3125H90.4907ZM68.5532 42.3125L68.8345 39.5H100.475L100.241 42.3125H68.5532ZM92.272 21.9688L92.8813 15.2188H102.631L102.022 21.9688H92.272Z" fill="black"/>
<path id="A1" d="M115.975 29.1875L116.209 26.375H146.444L146.209 29.1875H115.975ZM114.053 42.3125L116.397 15.1719H126.147L123.803 42.3125H114.053ZM135.991 42.3125L138.334 15.1719H148.084L145.741 42.3125H135.991ZM116.725 17.9844L116.959 15.1719H147.194L146.959 17.9844H116.725Z" fill="black"/>
<path id="I1" d="M163.249 42.3125L165.592 15.1719H175.342L172.999 42.3125H163.249ZM161.608 17.9844L161.842 15.1719H178.952L178.717 17.9844H161.608ZM159.545 42.3125L159.78 39.5H176.889L176.655 42.3125H159.545Z" fill="black"/>
<path id="K1" d="M189.053 42.3125L191.397 15.1719H201.147L198.803 42.3125H189.053ZM190.975 33.6875L191.444 29L223.178 14.9375L222.709 19.625L190.975 33.6875ZM210.991 42.3125L202.272 24.3125H212.022L220.741 42.3125H210.991Z" fill="black"/>
<path id="Y1" d="M239.741 29.1875L228.397 15.1719H238.147L249.491 29.1875H239.741ZM239.741 29.1875L253.334 15.1719H263.084L249.491 29.1875H239.741ZM238.569 42.3125L239.741 29.1875H249.491L248.319 42.3125H238.569Z" fill="black"/>
<path id="O1" d="M266.053 42.3125L268.397 15.1719H278.147L275.803 42.3125H266.053ZM268.725 17.9844L268.959 15.1719H299.944L299.709 17.9844H268.725ZM266.85 42.3125L267.084 39.5H297.881L297.647 42.3125H266.85ZM287.991 42.3125L290.334 15.1719H300.084L297.741 42.3125H287.991Z" fill="black"/>
</g>
</g>
</svg>
