<svg width="400" height="400" viewBox="0 0 400 400" fill="none" xmlns="http://www.w3.org/2000/svg">
<path d="M384.87 217.731C382.496 217.859 380.42 217.863 378.641 217.742C378.6 217.689 378.567 217.637 378.541 217.587C378.531 217.538 378.513 217.496 378.485 217.46C378.473 217.427 378.462 217.386 378.452 217.338L378.419 217.215C378.421 217.199 378.425 217.168 378.43 217.122L378.446 216.982L378.465 216.819L378.486 216.633C383.005 215.903 385.477 213.691 385.903 209.997C386.061 208.631 385.583 207.319 384.47 206.06C383.358 204.802 382.113 204.078 380.735 203.887C380.101 203.799 379.476 203.83 378.861 203.982C378.261 204.135 377.711 204.406 377.21 204.794C376.71 205.182 376.254 205.584 375.845 206C375.435 206.416 375.03 206.928 374.63 207.535C374.245 208.144 373.926 208.659 373.673 209.082C373.418 209.519 373.14 210.025 372.838 210.598C372.551 211.173 372.35 211.555 372.234 211.744C371.722 212.635 371.201 213.407 370.669 214.059C370.154 214.712 369.534 215.313 368.811 215.859C368.101 216.423 367.285 216.814 366.364 217.033C365.442 217.253 364.44 217.287 363.356 217.137C361.855 216.929 360.462 216.326 359.178 215.327C357.907 214.347 356.918 213.106 356.211 211.604C355.367 209.784 355.075 207.749 355.335 205.498C355.51 203.977 355.871 202.418 356.417 200.822C356.978 199.228 357.311 197.981 357.415 197.081C358.64 196.951 359.717 196.888 360.644 196.89C361.572 196.893 362.939 196.972 364.745 197.128C364.852 197.426 364.903 197.599 364.897 197.646C364.907 197.694 364.862 197.885 364.76 198.218C362.364 198.406 360.458 199.19 359.04 200.571C357.621 201.967 356.781 203.798 356.52 206.064C356.303 207.943 356.698 209.496 357.704 210.723C358.724 211.969 360.201 212.725 362.136 212.994C362.894 213.099 363.593 213.109 364.232 213.024C364.886 212.941 365.467 212.746 365.974 212.438C366.479 212.145 366.924 211.836 367.307 211.511C367.705 211.203 368.084 210.775 368.446 210.226C368.822 209.694 369.118 209.246 369.333 208.882C369.563 208.52 369.839 208.037 370.16 207.435C370.464 206.847 370.694 206.413 370.852 206.136C371.437 205.16 371.995 204.339 372.528 203.671C373.065 202.973 373.69 202.326 374.403 201.731C375.13 201.154 375.948 200.747 376.855 200.51C377.763 200.273 378.751 200.229 379.819 200.377C382.264 200.716 384.143 201.875 385.456 203.855C386.782 205.853 387.301 208.101 387.013 210.6C386.855 211.966 386.655 213.026 386.41 213.781C386.164 214.551 385.888 215.238 385.583 215.843C385.277 216.447 385.039 217.076 384.87 217.731Z" fill="black"/>
<path d="M360.037 249.112L357.065 257.159L370.832 258.228L370.881 258.096L361.273 248.33C361.068 248.119 360.852 248.075 360.625 248.195C360.406 248.337 360.21 248.643 360.037 249.112ZM352.752 239.941C352.543 239.695 352.327 239.539 352.102 239.474C351.886 239.429 351.695 239.404 351.531 239.399C351.366 239.395 351.192 239.462 351.007 239.602C350.817 239.757 350.654 239.906 350.518 240.05C350.381 240.194 350.243 240.389 350.103 240.634C349.957 240.893 349.829 241.126 349.719 241.334C349.61 241.541 349.496 241.78 349.379 242.053C349.202 242.127 349.006 242.117 348.792 242.022C348.592 241.934 348.452 241.795 348.372 241.606C348.549 241.172 348.868 240.444 349.329 239.42C349.776 238.39 350.126 237.531 350.381 236.842C350.619 236.197 350.883 235.393 351.172 234.429C351.442 233.474 351.656 232.759 351.815 232.284C351.992 232.209 352.181 232.216 352.381 232.304C352.595 232.399 352.742 232.541 352.822 232.73C352.487 233.861 352.41 234.859 352.589 235.724C352.763 236.603 353.364 237.586 354.392 238.673L374.507 259.757C374.312 260.284 374.315 261.198 374.516 262.499L345.506 260.575C345.018 260.546 344.576 260.572 344.181 260.652C343.794 260.754 343.475 260.876 343.222 261.02C342.97 261.164 342.721 261.386 342.477 261.687C342.242 262.01 342.067 262.282 341.952 262.503C341.831 262.74 341.668 263.068 341.463 263.489C341.286 263.564 341.09 263.554 340.876 263.459C340.676 263.37 340.536 263.231 340.456 263.042C340.616 262.653 340.968 261.836 341.51 260.593C342.033 259.358 342.424 258.388 342.684 257.685C342.933 257.011 343.297 255.935 343.775 254.459C344.234 252.991 344.524 252.07 344.646 251.697C344.823 251.623 345.011 251.629 345.211 251.718C345.426 251.813 345.573 251.955 345.652 252.144C345.222 253.625 345.006 254.57 345.005 254.979C344.996 255.811 345.444 256.265 346.346 256.342L355.478 257.068L358.945 247.68C359.129 247.182 359.183 246.788 359.107 246.498C359.026 246.223 358.845 245.947 358.565 245.669L352.752 239.941Z" fill="black"/>
<path d="M333.988 283.622C333.145 283.032 332.48 282.613 331.992 282.365C331.509 282.14 331.047 282.087 330.607 282.205C330.179 282.333 329.819 282.559 329.525 282.884C329.244 283.218 328.833 283.776 328.293 284.557C328.106 284.593 327.919 284.54 327.731 284.4C327.556 284.269 327.449 284.102 327.41 283.898C327.786 283.323 328.343 282.515 329.082 281.474C329.808 280.423 330.402 279.526 330.864 278.783C331.334 278.026 331.89 277.072 332.533 275.92C333.155 274.771 333.633 273.914 333.966 273.347C334.153 273.312 334.334 273.36 334.51 273.491C334.697 273.631 334.811 273.803 334.849 274.006C334.384 274.844 334.06 275.467 333.88 275.876C333.711 276.295 333.651 276.745 333.699 277.228C333.76 277.72 333.978 278.165 334.355 278.563C334.735 278.983 335.33 279.515 336.14 280.158C339.283 282.622 341.975 284.691 344.215 286.365C346.544 288.104 349.329 290.126 352.571 292.43C353.414 293.021 354.077 293.428 354.56 293.653C355.048 293.901 355.505 293.961 355.933 293.833C356.373 293.715 356.733 293.489 357.014 293.155C357.308 292.83 357.725 292.277 358.266 291.495C358.452 291.46 358.633 291.508 358.809 291.639C358.997 291.779 359.11 291.951 359.148 292.154C358.773 292.729 358.216 293.537 357.477 294.579C356.751 295.629 356.156 296.526 355.695 297.27C355.225 298.026 354.672 298.974 354.038 300.113C353.408 301.274 352.926 302.138 352.592 302.705C352.405 302.741 352.218 302.688 352.03 302.548C351.855 302.417 351.748 302.25 351.709 302.046C352.022 301.483 352.257 301.046 352.414 300.736C352.57 300.425 352.699 300.084 352.801 299.714C352.903 299.343 352.927 299.04 352.871 298.804C352.816 298.569 352.692 298.282 352.499 297.943C352.31 297.628 352.051 297.308 351.721 296.983C351.408 296.691 350.974 296.328 350.419 295.894C347.576 293.655 344.828 291.544 342.174 289.562C339.933 287.888 337.204 285.908 333.988 283.622Z" fill="black"/>
<path d="M318.246 305.885C317.546 305.132 316.983 304.583 316.558 304.239C316.133 303.919 315.694 303.771 315.241 303.796C314.797 303.833 314.399 303.98 314.046 304.239C313.704 304.509 313.189 304.971 312.501 305.626C312.311 305.623 312.139 305.532 311.985 305.356C311.841 305.191 311.771 305.005 311.776 304.797C312.26 304.311 312.974 303.627 313.92 302.747C314.844 301.865 315.602 301.113 316.194 300.491C316.808 299.845 317.547 299.024 318.41 298.026C319.253 297.027 319.895 296.284 320.337 295.797C320.527 295.801 320.693 295.885 320.837 296.05C320.992 296.227 321.067 296.419 321.062 296.626C320.75 296.978 320.501 297.261 320.318 297.477C320.134 297.715 319.949 297.966 319.765 298.227C319.591 298.501 319.475 298.723 319.419 298.895C319.362 299.091 319.321 299.303 319.295 299.534C319.269 299.787 319.29 300.013 319.36 300.21C319.429 300.431 319.54 300.688 319.692 300.979C319.843 301.271 320.032 301.558 320.258 301.84C320.483 302.145 320.76 302.497 321.089 302.896C324.5 306.986 326.69 309.583 327.657 310.689C328.695 311.877 331.007 314.425 334.59 318.333C334.941 318.71 335.245 319.022 335.503 319.27C335.761 319.541 336.019 319.766 336.279 319.944C336.538 320.123 336.762 320.249 336.95 320.322C337.138 320.418 337.342 320.452 337.564 320.422C337.786 320.415 337.981 320.378 338.151 320.313C338.321 320.27 338.528 320.153 338.775 319.962C339.031 319.783 339.267 319.591 339.482 319.388C339.696 319.208 339.97 318.954 340.303 318.626C340.493 318.63 340.66 318.714 340.804 318.879C340.958 319.055 341.033 319.247 341.029 319.455C340.544 319.941 339.841 320.614 338.917 321.472C337.993 322.353 337.234 323.105 336.642 323.728C336.028 324.373 335.289 325.195 334.426 326.193C333.562 327.214 332.909 327.968 332.467 328.455C332.278 328.451 332.106 328.361 331.951 328.184C331.807 328.02 331.737 327.834 331.742 327.626C332.368 326.9 332.806 326.349 333.056 325.973C333.316 325.609 333.468 325.18 333.51 324.684C333.562 324.2 333.446 323.713 333.161 323.222C332.876 322.754 332.405 322.121 331.747 321.322C329.405 318.502 327.39 316.127 325.703 314.198C324.6 315.561 324.067 317.149 324.103 318.962L324.359 330.883C324.375 331.611 324.49 332.145 324.705 332.484C324.929 332.835 325.215 332.997 325.563 332.97C325.912 332.942 326.261 332.834 326.613 332.645C326.964 332.479 327.317 332.233 327.671 331.905C327.861 331.909 328.027 331.993 328.171 332.158C328.326 332.335 328.401 332.527 328.396 332.734C327.912 333.221 327.23 333.87 326.349 334.683C325.468 335.519 324.796 336.181 324.333 336.667C323.87 337.154 323.319 337.778 322.682 338.538C322.055 339.31 321.499 339.962 321.014 340.495C320.824 340.491 320.653 340.401 320.498 340.224C320.354 340.06 320.284 339.873 320.289 339.666C321.86 337.562 322.637 335.154 322.62 332.44L322.715 321.878C322.72 321.104 322.701 320.492 322.658 320.041C322.614 319.612 322.568 319.334 322.518 319.206C322.467 319.101 322.396 318.996 322.303 318.89C322.077 318.631 321.674 318.479 321.096 318.432L305.634 316.671C303.87 316.426 302.206 316.9 300.644 318.091C300.454 318.087 300.282 317.997 300.128 317.82C299.984 317.656 299.914 317.469 299.919 317.262C300.413 316.764 301.069 316.143 301.885 315.398C302.68 314.652 303.304 314.042 303.756 313.566C304.122 313.181 304.419 312.824 304.647 312.494C304.854 312.163 305.033 311.907 305.185 311.726C305.292 311.613 305.408 311.626 305.531 311.768C306.255 312.406 307.415 312.858 309.01 313.122L320.461 314.799C321.217 314.907 321.983 314.813 322.758 314.518C323.533 314.222 324.221 313.781 324.824 313.193C323.034 311.146 320.841 308.711 318.246 305.885Z" fill="black"/>
<path d="M279.223 338.085C278.9 337.497 278.618 337.021 278.377 336.657C278.135 336.294 277.869 336.001 277.578 335.779C277.295 335.57 277.034 335.439 276.795 335.386C276.557 335.333 276.243 335.354 275.854 335.45C275.473 335.56 275.099 335.701 274.732 335.875C274.373 336.062 273.882 336.332 273.258 336.685C273.073 336.635 272.927 336.506 272.819 336.297C272.719 336.103 272.695 335.907 272.75 335.707C273.301 335.382 274.197 334.878 275.439 334.194C276.674 333.497 277.703 332.892 278.525 332.379C279.36 331.858 280.379 331.185 281.583 330.36C282.767 329.53 283.613 328.946 284.123 328.61C284.307 328.66 284.45 328.782 284.551 328.977C284.659 329.185 284.685 329.388 284.631 329.587C284.035 329.996 283.573 330.321 283.242 330.564C282.919 330.821 282.617 331.101 282.336 331.405C282.063 331.723 281.886 332.007 281.806 332.259C281.726 332.511 281.695 332.824 281.714 333.198C281.74 333.586 281.834 333.986 281.996 334.399C282.157 334.812 282.387 335.321 282.683 335.926L285.879 342.386C286.045 342.705 286.185 342.957 286.299 343.143C286.413 343.329 286.55 343.491 286.71 343.63C286.877 343.783 287.008 343.885 287.105 343.935C287.195 344.007 287.381 344.111 287.662 344.248C287.897 344.395 288.124 344.529 288.344 344.648L298.574 350.712C300.049 351.592 301.225 352.032 302.104 352.035C303.003 352.043 303.961 351.775 304.978 351.233C305.162 351.283 305.311 351.401 305.426 351.587C305.547 351.787 305.58 351.986 305.526 352.185C305.34 352.301 304.673 352.672 303.523 353.297C302.36 353.931 301.468 354.443 300.845 354.831C300.248 355.204 299.427 355.753 298.382 356.478C297.331 357.226 296.591 357.743 296.161 358.03C295.977 357.979 295.83 357.85 295.722 357.642C295.622 357.448 295.599 357.251 295.653 357.052C296.262 356.636 296.707 356.293 296.989 356.026C297.278 355.772 297.476 355.51 297.583 355.242C297.676 354.982 297.621 354.741 297.418 354.519C297.235 354.302 296.895 354.037 296.399 353.723L286.335 347.472C285.962 347.227 285.696 347.136 285.535 347.2C285.369 347.285 285.283 347.559 285.278 348.022L285.403 360.584C285.401 361.155 285.466 361.583 285.596 361.869C285.734 362.168 285.952 362.317 286.249 362.315C286.54 362.335 286.846 362.282 287.167 362.155C287.474 362.037 287.897 361.837 288.435 361.556C288.619 361.607 288.758 361.722 288.852 361.902C288.953 362.097 288.976 362.293 288.921 362.493C288.384 362.81 287.663 363.213 286.76 363.704C285.863 364.208 285.256 364.56 284.938 364.758C284.58 364.982 283.941 365.408 283.022 366.037C282.109 366.679 281.511 367.099 281.227 367.295C281.042 367.244 280.9 367.122 280.799 366.928C280.706 366.748 280.686 366.558 280.741 366.359C281.77 365.569 282.523 364.806 283 364.067C283.476 363.329 283.718 362.307 283.723 360.999L283.804 347.922C283.803 347.041 283.486 345.991 282.853 344.77L279.223 338.085Z" fill="black"/>
<path d="M251.373 378.36C252.225 378.101 253.031 377.66 253.791 377.037C254.555 376.429 255.243 375.616 255.855 374.598C256.466 373.58 256.948 372.43 257.3 371.149C257.636 369.871 257.788 368.373 257.756 366.654C257.727 364.95 257.474 363.159 256.999 361.28C256.558 359.538 255.94 357.956 255.145 356.534C254.35 355.112 253.454 353.925 252.456 352.972C251.447 352.039 250.372 351.29 249.23 350.724C248.089 350.157 246.924 349.818 245.737 349.707C244.553 349.61 243.401 349.732 242.28 350.074C239.619 350.883 237.727 352.821 236.603 355.888C235.469 358.974 235.421 362.569 236.46 366.674C237.04 368.961 237.87 370.968 238.951 372.695C240.021 374.441 241.223 375.788 242.558 376.736C243.882 377.703 245.304 378.331 246.826 378.618C248.348 378.906 249.864 378.819 251.373 378.36ZM232.537 368.822C231.54 364.884 231.623 361.302 232.786 358.077C233.6 355.823 234.871 353.878 236.598 352.243C238.314 350.628 240.421 349.44 242.917 348.68C244.86 348.089 246.787 347.878 248.698 348.047C250.612 348.231 252.371 348.756 253.975 349.622C255.579 350.488 256.999 351.745 258.237 353.391C259.46 355.042 260.356 356.988 260.923 359.23C261.985 363.425 261.857 367.241 260.537 370.677C259.704 372.856 258.472 374.731 256.842 376.304C255.227 377.873 253.305 378.996 251.078 379.673C248.313 380.515 245.68 380.672 243.179 380.144C240.679 379.616 238.481 378.376 236.587 376.424C234.68 374.492 233.331 371.958 232.537 368.822Z" fill="black"/>
<path d="M149.077 373.702C148.724 375.161 148.636 376.198 148.813 376.811C148.975 377.419 149.473 377.855 150.307 378.12L152.988 378.971C156.145 379.974 158.638 378.817 160.466 375.5C160.824 375.614 161.168 375.805 161.501 376.075C160.254 378.413 159.269 380.581 158.548 382.579C158.524 382.67 158.445 382.694 158.311 382.651C154.139 380.966 150.631 379.672 147.787 378.769L143.855 377.521C140.847 376.565 137.386 375.646 133.47 374.763C133.441 374.754 133.417 374.722 133.399 374.667C133.377 374.627 133.368 374.6 133.372 374.585C133.898 372.41 134.297 370.106 134.57 367.67C134.937 367.623 135.322 367.664 135.724 367.791C135.558 371.537 137.209 373.961 140.679 375.063L142.154 375.531C142.973 375.791 143.589 375.717 144.004 375.308C144.415 374.915 144.84 373.977 145.28 372.496C145.89 370.43 146.804 367.093 148.021 362.486C149.067 358.528 149.899 355.255 150.518 352.668C150.675 352.014 150.783 351.451 150.843 350.979C150.885 350.517 150.858 350.099 150.763 349.725C150.664 349.366 150.542 349.065 150.396 348.823C150.246 348.595 149.992 348.367 149.633 348.138C149.273 347.909 148.926 347.725 148.592 347.587C148.257 347.448 147.781 347.264 147.164 347.035C147.066 346.856 147.047 346.654 147.107 346.427C147.162 346.216 147.275 346.063 147.445 345.97C148.052 346.179 149.023 346.536 150.358 347.042C151.682 347.528 152.806 347.918 153.729 348.211C154.668 348.509 155.837 348.847 157.238 349.227C158.628 349.586 159.616 349.851 160.2 350.02C160.299 350.199 160.32 350.394 160.264 350.605C160.204 350.832 160.089 350.992 159.919 351.085C159.286 350.917 158.794 350.793 158.443 350.715C158.093 350.636 157.71 350.588 157.295 350.571C156.88 350.554 156.553 350.598 156.316 350.702C156.074 350.822 155.824 351.005 155.566 351.25C155.303 351.511 155.077 351.848 154.887 352.262C154.692 352.692 154.502 353.229 154.316 353.874C153.574 356.438 152.678 359.707 151.628 363.68C150.499 367.955 149.648 371.296 149.077 373.702Z" fill="black"/>
<path d="M104.893 357.977C105.641 358.46 106.478 358.778 107.404 358.931C108.322 359.097 109.324 359.058 110.41 358.813C111.496 358.569 112.581 358.129 113.664 357.494C114.735 356.85 115.826 355.904 116.938 354.657C118.042 353.423 119.053 351.953 119.969 350.246C120.819 348.663 121.444 347.055 121.843 345.422C122.243 343.789 122.419 342.244 122.371 340.785C122.303 339.333 122.068 337.958 121.668 336.662C121.268 335.366 120.703 334.213 119.972 333.204C119.234 332.208 118.372 331.393 117.388 330.757C115.051 329.249 112.491 329.144 109.707 330.443C106.903 331.748 104.5 334.265 102.496 337.996C101.38 340.075 100.619 342.151 100.213 344.224C99.7858 346.303 99.712 348.201 99.9912 349.92C100.25 351.644 100.8 353.204 101.641 354.6C102.483 355.996 103.567 357.121 104.893 357.977ZM98.4208 336.45C100.343 332.871 102.762 330.391 105.677 329.01C107.716 328.046 109.859 327.659 112.108 327.85C114.336 328.046 116.546 328.851 118.739 330.266C120.445 331.368 121.89 332.727 123.073 334.343C124.248 335.973 125.094 337.723 125.609 339.594C126.125 341.466 126.259 343.471 126.012 345.61C125.752 347.741 125.075 349.825 123.981 351.862C121.933 355.675 119.329 358.286 116.169 359.694C114.167 360.59 112.096 360.958 109.954 360.799C107.825 360.648 105.782 359.942 103.826 358.679C101.398 357.112 99.5103 355.161 98.1644 352.828C96.8185 350.495 96.1474 347.893 96.151 345.023C96.134 342.157 96.8906 339.299 98.4208 336.45Z" fill="black"/>
<path d="M89.1643 314.113C89.6137 313.59 89.9479 313.161 90.1668 312.825C90.3754 312.5 90.5466 312.112 90.6806 311.661C90.7935 311.21 90.7854 310.766 90.6562 310.328C90.506 309.89 90.2447 309.378 89.8724 308.792C89.479 308.206 88.9323 307.534 88.2325 306.777C87.2675 305.732 86.2878 304.855 85.2935 304.146C84.2886 303.448 83.2006 302.913 82.0293 302.539C80.8476 302.178 79.6727 302.052 78.5046 302.164C77.326 302.287 76.0863 302.722 74.7854 303.469C73.474 304.228 72.1858 305.31 70.9207 306.715C69.8856 307.865 68.9775 309.106 68.1964 310.438C67.4047 311.782 66.7719 313.253 66.2978 314.849C65.8132 316.457 65.5708 318.051 65.5704 319.633C65.5596 321.226 65.8808 322.869 66.5341 324.562C67.1873 326.255 68.1926 327.835 69.5499 329.304C70.0377 329.832 70.4774 330.251 70.869 330.56C71.2395 330.869 71.5884 331.086 71.9156 331.211C72.2323 331.325 72.5222 331.375 72.7853 331.361C73.0379 331.337 73.311 331.231 73.6046 331.044C73.8772 330.858 74.1391 330.649 74.3903 330.416C74.6415 330.183 74.945 329.881 75.3006 329.51L75.4417 329.353C79.1232 325.45 81.4814 322.924 82.5165 321.775C84.6912 319.36 86.9071 316.806 89.1643 314.113ZM73.376 334.786C73.0473 334.43 72.1993 333.57 70.8322 332.205C69.465 330.84 68.3732 329.716 67.5567 328.832C66.0191 327.168 64.8485 325.259 64.0449 323.106C63.2306 320.941 62.8165 318.762 62.8023 316.568C62.7778 314.387 63.1481 312.22 63.9135 310.068C64.6578 307.915 65.7618 306.027 67.2256 304.401C68.7416 302.717 70.3287 301.455 71.9871 300.613C73.6349 299.782 75.1853 299.351 76.6383 299.319C78.0806 299.275 79.53 299.514 80.9865 300.035C82.4324 300.545 83.7213 301.207 84.8533 302.019C85.9642 302.832 87.0127 303.771 87.9989 304.839C89.3032 306.25 90.5813 307.691 91.8333 309.16C93.0853 310.63 93.8174 311.48 94.0294 311.709C94.6339 312.363 95.4024 313.149 96.3349 314.067C97.2673 314.961 97.9614 315.643 98.4172 316.114C98.4186 316.322 98.3461 316.507 98.1997 316.669C98.0429 316.843 97.8697 316.931 97.6802 316.932C97.3516 316.6 97.0866 316.336 96.8853 316.141C96.6629 315.946 96.43 315.751 96.1866 315.557C95.9327 315.374 95.7265 315.254 95.5682 315.197C95.3889 315.141 95.1938 315.101 94.9831 315.08C94.7513 315.058 94.5461 315.088 94.3676 315.17C94.1681 315.252 93.9373 315.381 93.6751 315.556C93.413 315.73 93.1564 315.946 92.9053 316.201C92.6332 316.457 92.3193 316.771 91.9637 317.142C88.3241 320.999 86.0129 323.472 85.0301 324.564C83.9741 325.737 81.7111 328.343 78.2412 332.383C77.9068 332.777 77.6299 333.12 77.4107 333.41C77.1703 333.7 76.9721 333.99 76.8161 334.279C76.66 334.569 76.551 334.818 76.4892 335.026C76.4063 335.234 76.3814 335.46 76.4145 335.702C76.4266 335.944 76.4649 336.157 76.5292 336.342C76.5725 336.526 76.6845 336.751 76.8653 337.015C77.0355 337.291 77.2162 337.544 77.4072 337.773C77.5771 338.003 77.816 338.296 78.1236 338.652C78.125 338.86 78.0524 339.045 77.9061 339.207C77.7492 339.382 77.5761 339.469 77.3865 339.47C76.9304 338.954 76.299 338.202 75.4924 337.214C74.6647 336.227 73.9592 335.417 73.376 334.786Z" fill="black"/>
<path d="M39.2832 288.149C39.7123 288.929 40.2978 289.607 41.0398 290.18C41.7687 290.762 42.6688 291.204 43.7402 291.504C44.8115 291.804 45.9746 291.931 47.2293 291.886C48.4765 291.827 49.8851 291.512 51.4551 290.941C53.0121 290.379 54.5988 289.564 56.2152 288.496C57.7143 287.505 59.027 286.385 60.1534 285.137C61.2797 283.889 62.1679 282.611 62.8178 281.304C63.4471 279.992 63.8934 278.67 64.1567 277.339C64.4199 276.008 64.4695 274.724 64.3055 273.489C64.1285 272.262 63.7577 271.135 63.1931 270.108C61.853 267.671 59.6504 266.364 56.5851 266.187C53.4992 266.005 50.19 267.081 46.6573 269.416C44.689 270.716 43.0341 272.183 41.6927 273.816C40.3308 275.444 39.3648 277.082 38.7948 278.728C38.2042 280.369 37.9479 282.003 38.0258 283.632C38.1037 285.26 38.5228 286.766 39.2832 288.149ZM43.8057 266.12C47.1949 263.88 50.4997 262.844 53.7199 263.012C55.9707 263.13 58.04 263.807 59.9277 265.042C61.7948 266.272 63.3569 268.03 64.6142 270.317C65.5928 272.097 66.219 273.979 66.4926 275.963C66.7532 277.957 66.6663 279.899 66.2317 281.792C65.7972 283.684 64.9637 285.514 63.7312 287.28C62.4912 289.033 60.9066 290.547 58.9773 291.822C55.3665 294.208 51.8368 295.272 48.3883 295.012C46.2027 294.851 44.2054 294.192 42.3965 293.036C40.5951 291.893 39.1336 290.301 38.0119 288.261C36.6192 285.728 35.8844 283.115 35.8075 280.422C35.7307 277.729 36.3751 275.119 37.7406 272.592C39.0856 270.061 41.1073 267.903 43.8057 266.12Z" fill="black"/>
<path d="M29.4577 181.013L29.8291 172.443L16.3344 176.37L16.3283 176.511L28.5155 182.185C28.7761 182.308 28.9965 182.272 29.177 182.078C29.3425 181.868 29.4361 181.513 29.4577 181.013ZM39.2402 186.963C39.515 187.118 39.7701 187.186 40.0055 187.166C40.226 187.131 40.4156 187.086 40.5744 187.031C40.7331 186.977 40.8793 186.852 41.013 186.655C41.1473 186.443 41.2575 186.245 41.3436 186.062C41.4298 185.879 41.5023 185.648 41.5613 185.369C41.621 185.075 41.6715 184.812 41.7128 184.579C41.7542 184.347 41.7891 184.082 41.8176 183.787C41.9641 183.653 42.1544 183.593 42.3885 183.605C42.6069 183.616 42.7833 183.696 42.9177 183.843C42.8818 184.311 42.8005 185.105 42.6737 186.225C42.5626 187.345 42.4911 188.272 42.4593 189.006C42.4296 189.693 42.4243 190.538 42.4434 191.54C42.4788 192.527 42.4935 193.271 42.4874 193.772C42.3409 193.905 42.1584 193.966 41.9399 193.955C41.7059 193.942 41.5217 193.863 41.3873 193.715C41.36 192.54 41.1279 191.581 40.6909 190.839C40.2545 190.081 39.3779 189.379 38.061 188.732L12.3513 176.258C12.3756 175.697 12.0919 174.845 11.5002 173.703L39.8349 165.121C40.3105 164.974 40.725 164.792 41.0784 164.575C41.4169 164.342 41.6849 164.114 41.8823 163.889C42.0797 163.665 42.2489 163.368 42.39 163C42.5161 162.616 42.6002 162.299 42.6422 162.051C42.6849 161.787 42.7399 161.422 42.807 160.956C42.9535 160.823 43.1438 160.763 43.3778 160.775C43.5963 160.786 43.7727 160.865 43.9071 161.013C43.8732 161.434 43.7878 162.321 43.6509 163.675C43.5303 165.015 43.4538 166.059 43.4213 166.808C43.3902 167.526 43.3724 168.66 43.3678 170.208C43.3795 171.742 43.3848 172.705 43.3834 173.096C43.2369 173.229 43.0544 173.29 42.836 173.279C42.6019 173.267 42.4177 173.187 42.2833 173.039C42.2404 171.503 42.1568 170.545 42.0326 170.163C41.7849 169.383 41.2177 169.12 40.331 169.371L31.3749 171.96L30.9416 181.958C30.9186 182.489 30.9878 182.876 31.1493 183.119C31.3115 183.346 31.569 183.539 31.9218 183.698L39.2402 186.963Z" fill="black"/>
<path d="M34.8621 134.74C36.694 135.371 39.8936 136.44 44.4609 137.947C44.9041 138.1 45.2916 138.192 45.6233 138.224C45.9594 138.24 46.2662 138.189 46.5437 138.07C46.8108 137.931 47.041 137.78 47.2342 137.615C47.4318 137.436 47.633 137.158 47.8378 136.783C48.0322 136.388 48.2032 136.018 48.3509 135.673C48.4837 135.323 48.6532 134.845 48.8592 134.239C49.0309 134.15 49.2276 134.143 49.4492 134.219C49.656 134.291 49.8065 134.417 49.9007 134.598C49.7138 135.193 49.381 136.185 48.9025 137.571C48.4431 138.948 48.0756 140.116 47.8001 141.078C47.5547 141.934 47.2807 143.003 46.9782 144.285C46.6948 145.557 46.47 146.511 46.304 147.147C46.1323 147.237 45.9431 147.246 45.7362 147.174C45.5146 147.098 45.3567 146.969 45.2625 146.788C45.4095 146.162 45.5134 145.687 45.5742 145.361C45.6394 145.02 45.6698 144.659 45.6654 144.278C45.6653 143.882 45.6107 143.591 45.5018 143.405C45.3823 143.199 45.1868 142.975 44.9153 142.733C44.6334 142.471 44.2846 142.243 43.8691 142.051C43.4684 141.863 42.9378 141.647 42.2773 141.403C39.7093 140.453 36.5121 139.318 32.6859 138C31.1938 137.486 27.9278 136.394 22.8877 134.724C22.2334 134.515 21.6929 134.362 21.2664 134.264C20.8294 134.147 20.4364 134.102 20.0874 134.131C19.7236 134.154 19.4368 134.22 19.227 134.329C19.0214 134.424 18.8174 134.626 18.615 134.935C18.4126 135.245 18.2492 135.56 18.125 135.881C18.0007 136.201 17.8356 136.664 17.6295 137.269C17.4578 137.359 17.2686 137.368 17.0617 137.297C16.8401 137.22 16.6822 137.092 16.588 136.911C16.7922 136.255 17.1056 135.331 17.5282 134.14C17.9402 132.929 18.2647 131.91 18.5014 131.084C18.6952 130.408 18.9442 129.256 19.2484 127.628C19.557 125.985 19.7608 124.991 19.8598 124.645C20.3248 123.023 20.9227 121.645 21.6536 120.51C22.3846 119.376 23.1267 118.542 23.8799 118.01C24.6184 117.472 25.4141 117.102 26.2671 116.901C27.1245 116.685 27.8849 116.608 28.5484 116.672C29.2162 116.721 29.853 116.849 30.4587 117.058C31.286 117.343 32.0684 117.728 32.8058 118.213C33.5328 118.678 34.2273 119.313 34.8891 120.119C35.5553 120.909 36.0771 121.807 36.4546 122.812C36.8365 123.801 37.0343 125.008 37.0482 126.432C37.0664 127.841 36.8452 129.349 36.3846 130.957C35.8852 132.699 35.3777 133.96 34.8621 134.74ZM21.8581 130.161C26.8637 131.951 30.8217 133.348 33.732 134.35L33.9536 134.427C34.295 133.802 34.7176 132.61 35.2213 130.853C36.5601 126.182 34.8584 123.029 30.1163 121.396C28.7424 120.922 27.4993 120.7 26.3871 120.73C25.2793 120.744 24.3668 120.983 23.6499 121.446C22.9373 121.893 22.3595 122.437 21.9165 123.076C21.4587 123.711 21.1071 124.456 20.8617 125.312C20.4183 126.859 20.2973 127.989 20.4988 128.702C20.6897 129.395 21.1429 129.882 21.8581 130.161Z" fill="black"/>
<path d="M52.156 92.5565C53.7515 93.6557 56.5463 95.5433 60.5405 98.2193C60.9265 98.4852 61.2741 98.6774 61.5831 98.7958C61.8999 98.9006 62.2054 98.9314 62.4994 98.8881C62.7883 98.8224 63.0451 98.7346 63.2696 98.6246C63.502 98.501 63.7617 98.2828 64.0487 97.97C64.3306 97.6347 64.5841 97.3177 64.8091 97.019C65.0214 96.7114 65.2996 96.2885 65.6439 95.7504C65.8297 95.7082 66.019 95.7536 66.212 95.8866C66.3922 96.0107 66.5052 96.1736 66.5511 96.3754C66.2274 96.9088 65.6682 97.7904 64.8735 99.0204C64.0994 100.246 63.4637 101.292 62.9664 102.16C62.5235 102.932 62.0015 103.906 61.4002 105.08C60.8197 106.249 60.3726 107.123 60.0592 107.701C59.8734 107.744 59.6905 107.703 59.5104 107.579C59.3173 107.446 59.1979 107.278 59.152 107.077C59.4449 106.503 59.66 106.065 59.7974 105.763C59.9427 105.447 60.0596 105.102 60.1482 104.728C60.2446 104.341 60.2635 104.042 60.2047 103.831C60.1409 103.598 60.0088 103.327 59.8085 103.019C59.6032 102.688 59.3256 102.374 58.9757 102.077C58.6388 101.788 58.1846 101.437 57.6134 101.025C55.3927 99.4191 52.6161 97.4684 49.2835 95.1725C47.9839 94.2772 45.1312 92.3497 40.7253 89.39C40.1514 89.0136 39.6726 88.7216 39.289 88.514C38.9003 88.2841 38.5359 88.137 38.1958 88.0729C37.8428 87.9999 37.5528 87.9892 37.3258 88.0408C37.1065 88.0788 36.8625 88.2227 36.5937 88.4724C36.3249 88.7222 36.0922 88.9873 35.8955 89.2678C35.6989 89.5483 35.4284 89.9576 35.0841 90.4957C34.8983 90.5379 34.7154 90.497 34.5353 90.3729C34.3422 90.2399 34.2228 90.0725 34.1769 89.8707C34.5317 89.2831 35.0559 88.4625 35.7496 87.4087C36.4382 86.3326 36.9962 85.4217 37.4236 84.6762C37.7732 84.0661 38.2916 83.0051 38.9788 81.4931C39.6738 79.9675 40.1106 79.0488 40.2893 78.737C41.1285 77.273 42.0353 76.0824 43.0096 75.1653C43.984 74.2482 44.8957 73.6283 45.7447 73.3056C46.5809 72.974 47.4308 72.8221 48.2944 72.8497C49.1658 72.8639 49.9105 72.9893 50.5286 73.226C51.1545 73.4492 51.7312 73.7425 52.2588 74.106C52.9793 74.6024 53.6326 75.1848 54.2187 75.8533C54.7996 76.4993 55.308 77.3033 55.7437 78.2653C56.1872 79.2138 56.4669 80.229 56.5826 81.3109C56.7061 82.3792 56.601 83.6116 56.2673 85.0079C55.9414 86.3906 55.3628 87.8072 54.5314 89.2577C53.6301 90.8302 52.8383 91.9298 52.156 92.5565ZM40.8538 84.6568C45.1975 87.7249 48.6368 90.1321 51.1716 91.8784L51.3647 92.0113C51.843 91.49 52.5367 90.4363 53.4458 88.8502C55.8623 84.6343 55.0053 81.1036 50.875 78.2581C49.6784 77.4337 48.5454 76.8896 47.4762 76.6257C46.4148 76.3482 45.4854 76.3414 44.688 76.6052C43.8985 76.8555 43.2143 77.235 42.6354 77.7439C42.0437 78.2439 41.5264 78.8802 41.0836 79.6529C40.2832 81.0492 39.8924 82.1225 39.911 82.8728C39.9246 83.6006 40.2388 84.1953 40.8538 84.6568Z" fill="black"/>
</svg>
