<svg width="307" height="73" viewBox="0 0 307 73" fill="none" xmlns="http://www.w3.org/2000/svg">
<g id="splash_text">
<g id="bottom">
<path id="ri" d="M291.585 72.125L295.803 46.8125H290.835L291.069 44H306.772L302.085 72.125H291.585ZM266.788 61.625L268.335 44H278.835L277.288 61.625H266.788Z" fill="black"/>
<path id="pu" d="M256.532 48.6875H255.266L250.626 72.125H240.126L244.954 47.5625H215.469L215.704 44.75H249.688L249.313 48.6875H250.907L251.329 44H256.954L256.532 48.6875ZM254.751 45.4062H253.251L253.11 47.2812H254.61L254.751 45.4062Z" fill="black"/>
<path id="a" d="M191.292 61.625L194.01 47.5156H163.917L164.151 44.7031H205.026L201.792 61.625H191.292ZM171.229 72.125L177.651 50.9844H188.151L181.729 72.125H171.229Z" fill="black"/>
<path id="O2" d="M120.314 71.375L122.658 44.2344H132.408L130.064 71.375H120.314ZM122.986 47.0469L123.221 44.2344H154.205L153.971 47.0469H122.986ZM121.111 71.375L121.346 68.5625H152.143L151.908 71.375H121.111ZM142.252 71.375L144.596 44.2344H154.346L152.002 71.375H142.252Z" fill="black"/>
<path id="D" d="M99.569 71.375L102.663 62L103.413 53.6094L102.007 44.2344H111.757L113.163 53.6094L112.413 62L109.319 71.375H99.569ZM79.5534 71.375L81.944 44.2344H91.694L89.3034 71.375H79.5534ZM81.7097 47.0469L81.944 44.2344H110.069L109.835 47.0469H81.7097ZM79.5534 71.375L79.7878 68.5625H101.96L101.725 71.375H79.5534Z" fill="black"/>
<path id="O" d="M38.6986 71.375L41.0423 44.2344H50.7923L48.4486 71.375H38.6986ZM41.3705 47.0469L41.6048 44.2344H72.5892L72.3548 47.0469H41.3705ZM39.4955 71.375L39.7298 68.5625H70.5267L70.2923 71.375H39.4955ZM60.6361 71.375L62.9798 44.2344H72.7298L70.3861 71.375H60.6361Z" fill="black"/>
<path id="T" d="M0 47.0469L0.234375 44.2344H31.6875L31.4531 47.0469H0ZM8.90625 71.375L11.25 44.2344H21L18.6562 71.375H8.90625Z" fill="black"/>
</g>
<g id="top">
<path id="no" d="M184.431 28.125L186.869 1.875H225.119L222.728 28.125H213.54L215.603 4.64062H210.259L206.04 28.125H184.431ZM201.119 4.64062H195.775L193.853 25.3594H197.415L201.119 4.64062Z" fill="black"/>
<path id="kyou" d="M133.394 2.8125L133.628 0H141.316H148.816L147.972 9.75H140.472H140.285L139.863 14.0625H140.144H147.644L146.425 28.125H138.925H133.722L134.003 25.3125H139.16L139.91 16.875H139.628H132.269H132.128L133.019 6.9375H140.519H140.706L141.081 2.8125H133.394ZM148.722 20.25L149.66 9.375H152.097H156.41H157.956L158.191 6.75H149.519L149.753 3.9375H151.206L152.66 0H160.91L159.456 3.9375H166.675L165.878 1.125H173.003L175.019 8.0625H167.894L167.519 6.75H166.066L165.831 9.375H167.285H171.738H174.035L173.097 20.25H171.41H166.347H164.847L164.472 24.5156L166.628 24.4219L166.394 21.5625H172.769L173.331 28.125H166.956L166.863 27.1875L147.456 28.125L147.691 25.3125L156.597 24.8906L156.972 20.25H155.472H151.91H148.722ZM155.706 17.4375H157.253L157.722 12.1875H156.175L155.706 17.4375ZM167.05 12.1875H165.597L165.128 17.4375H166.581L167.05 12.1875Z" fill="black"/>
<path id="sai" d="M84.7474 10.6406L85.6849 0H86.388H93.9349H112.872H120.513H121.122L120.185 10.6406H119.529H111.935H92.9974H85.4037H84.7474ZM81.0912 14.4844L81.3255 11.6719H123.466L123.232 14.4844H104.201L102.982 28.125H95.1068L95.2005 26.8594L79.9662 27.5156L80.2005 24.7031L82.8724 24.5625L83.763 14.4844H81.0912ZM105.654 18.6562L105.888 15.8438H113.247H116.201H121.497L116.482 23.1562L122.294 25.125L122.06 27.9375L114.888 25.5L113.06 28.125H104.81L108.185 23.2031L105.279 22.2188L105.513 19.4062L109.779 20.8594L111.326 18.6562H105.654ZM93.6068 3.9375H112.544L112.638 2.8125H93.7005L93.6068 3.9375ZM93.2318 7.82812H112.169L112.263 6.75H93.3255L93.2318 7.82812ZM91.638 14.4844L91.5443 15.7031H96.2318L96.3255 14.4844H91.638ZM91.2162 19.6406H95.8568L95.9505 18.5156H91.3099L91.2162 19.6406ZM90.7943 24.2344L95.4818 24.0469L95.6224 22.4531H90.9349L90.7943 24.2344Z" fill="black"/>
</g>
</g>
</svg>
